<?xml version="1.0" standalone="no"?>
<!DOCTYPE svg PUBLIC "-//W3C//DTD SVG 20010904//EN"
 "http://www.w3.org/TR/2001/REC-SVG-20010904/DTD/svg10.dtd">
<svg version="1.0" xmlns="http://www.w3.org/2000/svg"
 width="382.000000pt" height="374.000000pt" viewBox="0 0 382.000000 374.000000"
 preserveAspectRatio="xMidYMid meet">

<g transform="translate(0.000000,374.000000) scale(0.100000,-0.100000)"
fill="#000000" stroke="none">
<path d="M0 1870 l0 -1870 1910 0 1910 0 0 1870 0 1870 -1910 0 -1910 0 0
-1870z m1556 1505 c123 -31 240 -88 321 -157 90 -77 120 -120 128 -179 5 -35
16 -61 35 -83 18 -20 26 -37 21 -45 -4 -7 -6 -23 -3 -36 3 -18 -8 -36 -43 -74
-26 -28 -51 -51 -55 -51 -3 0 -17 25 -29 55 -25 60 -70 105 -105 105 -43 0
-112 -60 -354 -304 l-243 -246 -67 0 c-37 0 -83 3 -104 6 -32 6 -36 10 -40 41
-4 33 3 43 87 137 51 55 180 187 287 291 191 187 228 234 228 290 0 78 -94
149 -277 209 -84 28 -99 38 -88 56 13 20 197 11 301 -15z m658 -508 c15 -19
26 -39 26 -46 0 -14 -175 -191 -189 -191 -16 0 -43 39 -51 74 -7 34 -5 38 52
93 33 32 70 68 81 81 29 31 52 28 81 -11z m137 -394 c241 -246 264 -273 265
-313 3 -66 5 -256 5 -395 0 -98 4 -142 12 -147 8 -5 5 -8 -8 -8 -16 0 -17 -2
-6 -9 28 -18 -51 -22 -364 -19 l-310 3 -5 75 -5 75 -107 0 c-60 0 -200 -1
-313 -3 l-205 -2 0 -154 c0 -85 2 -160 5 -168 4 -11 115 -13 613 -11 334 1
610 2 615 2 4 1 7 12 7 26 0 14 7 28 15 31 19 8 72 -5 59 -14 -5 -4 -9 -18 -8
-32 1 -14 3 -56 5 -95 l2 -70 -84 -6 c-112 -8 -1272 -4 -1285 4 -13 7 -13 932
0 944 4 4 255 9 557 11 302 1 549 6 549 10 0 4 -65 74 -145 156 -80 81 -145
151 -145 154 0 11 104 112 115 112 6 0 81 -71 166 -157z m-561 82 l0 -55 -44
0 c-40 0 -44 2 -49 28 -3 15 -3 39 0 55 5 24 10 27 49 27 l44 0 0 -55z m150 0
l0 -55 -50 0 -50 0 0 48 c0 27 3 52 7 55 3 4 26 7 50 7 l43 0 0 -55z m-150
-150 l0 -55 -45 0 -45 0 0 55 0 55 45 0 45 0 0 -55z m148 -3 l3 -53 -48 3 -48
3 -2 40 c-4 59 1 65 49 62 l43 -2 3 -53z m-725 -1670 c9 -8 17 -23 17 -34 0
-23 -55 -26 -64 -2 -9 23 -50 14 -54 -12 -3 -18 6 -25 45 -40 26 -9 54 -22 61
-27 17 -13 15 -92 -3 -111 -21 -21 -78 -30 -112 -19 -28 9 -56 49 -47 65 9 14
52 9 58 -7 3 -8 14 -15 24 -15 11 0 25 7 32 15 18 21 0 40 -54 55 -51 14 -64
37 -56 95 3 27 12 43 26 50 29 14 105 7 127 -13z m197 18 c33 0 60 -23 60 -51
0 -14 -7 -19 -29 -19 -16 0 -31 6 -35 15 -7 20 -45 19 -52 0 -9 -22 13 -43 58
-57 99 -29 90 -144 -12 -154 -57 -6 -94 12 -98 49 -3 23 0 27 21 27 14 0 27
-7 31 -15 7 -20 52 -19 60 1 9 23 -7 39 -53 52 -52 16 -63 32 -59 88 2 40 7
51 28 61 14 7 31 11 38 8 8 -3 26 -5 42 -5z m-450 -125 c23 -69 41 -127 39
-129 -2 -2 -14 -7 -26 -10 -18 -6 -25 -2 -35 18 -10 23 -17 26 -63 26 -45 0
-53 -3 -63 -24 -8 -18 -16 -23 -31 -19 -27 7 -23 40 20 167 l33 96 41 0 42 0
43 -125z m791 96 c29 -29 33 -48 30 -131 -3 -99 -142 -146 -215 -73 -23 23
-26 33 -26 99 0 63 3 76 26 103 24 29 30 31 91 31 58 0 67 -3 94 -29z m290 16
c9 -7 21 -23 28 -36 11 -19 11 -25 0 -32 -20 -13 -24 -12 -65 16 -34 23 -38
24 -65 9 -51 -26 -61 -93 -22 -136 21 -23 65 -23 93 0 20 16 70 20 70 5 0 -16
-33 -62 -47 -66 -55 -15 -78 -17 -113 -7 -57 15 -70 40 -70 133 0 69 3 81 25
102 21 21 33 25 87 25 35 0 70 -6 79 -13z m159 -117 l0 -130 -25 0 -25 0 0
130 0 130 25 0 25 0 0 -130z m257 0 c42 -123 42 -125 21 -133 -23 -8 -48 7
-48 29 0 10 -15 14 -56 14 -47 0 -57 -3 -61 -20 -8 -30 -53 -28 -53 3 0 24 27
117 55 191 18 46 19 47 59 44 l41 -3 42 -125z m273 111 c0 -20 -18 -31 -51
-31 -18 0 -19 -8 -19 -105 l0 -105 -30 0 -30 0 0 104 c0 102 0 104 -25 110
-16 4 -25 13 -25 26 0 18 7 20 90 20 82 0 90 -2 90 -19z m203 13 c3 -4 2 -15
-3 -24 -8 -15 -18 -17 -51 -13 l-40 6 3 -34 c3 -32 5 -34 43 -34 34 0 40 -3
43 -22 3 -21 -1 -23 -42 -23 -46 0 -46 0 -46 -35 0 -35 0 -35 45 -35 33 0 47
-5 52 -16 3 -9 1 -19 -6 -23 -9 -6 -99 -7 -133 -2 -5 1 -8 60 -8 131 l0 130
68 0 c38 0 72 -3 75 -6z m219 -11 c29 -26 23 -53 -11 -53 -17 0 -31 6 -35 16
-9 23 -50 14 -54 -12 -3 -18 6 -25 45 -40 64 -23 75 -35 77 -83 1 -51 -19 -72
-75 -78 -56 -5 -93 14 -97 50 -3 23 0 27 21 27 14 0 27 -7 31 -15 7 -20 52
-19 60 1 8 22 -8 40 -42 49 -56 14 -72 32 -72 83 0 27 5 53 12 60 18 18 118
15 140 -5z"/>
<path d="M1842 2078 c-24 -12 -37 -47 -29 -78 3 -11 -3 -26 -14 -36 -12 -11
-19 -31 -19 -55 0 -65 70 -98 146 -69 19 8 30 8 38 0 14 -14 66 -13 66 2 0 6
-9 22 -21 34 -19 21 -20 24 -5 52 9 17 16 33 16 37 0 10 -56 5 -68 -7 -9 -9
-20 -4 -47 22 -34 33 -45 60 -26 60 6 0 13 -4 16 -10 9 -15 65 -12 65 3 0 18
-12 32 -37 46 -26 13 -51 13 -81 -1z m41 -158 c22 -27 22 -30 -7 -30 -28 0
-40 14 -32 35 7 20 18 19 39 -5z"/>
<path d="M1315 2038 c-3 -8 -5 -46 -3 -84 l3 -69 170 4 c115 2 174 7 183 15
17 17 18 104 1 121 -10 9 -65 15 -181 20 -142 6 -169 5 -173 -7z"/>
<path d="M2114 2036 c-3 -8 -4 -29 -2 -48 l3 -33 120 -3 c66 -1 154 1 195 5
l75 8 0 40 0 40 -193 3 c-159 2 -193 0 -198 -12z"/>
<path d="M2122 1818 c-16 -16 -15 -73 2 -87 10 -9 66 -10 203 -6 160 4 190 8
201 22 15 20 15 38 2 64 -10 18 -23 19 -203 19 -137 0 -196 -3 -205 -12z"/>
<path d="M857 636 c-9 -27 -17 -51 -17 -53 0 -2 16 -3 36 -3 39 0 39 2 10 75
l-12 30 -17 -49z"/>
<path d="M1624 691 c-69 -42 -46 -151 32 -151 44 0 74 32 74 79 -1 40 -14 62
-47 79 -27 15 -22 15 -59 -7z"/>
<path d="M2360 656 c-26 -70 -25 -76 13 -76 l35 0 -14 47 c-18 59 -21 62 -34
29z"/>
</g>
</svg>
